<svg width="101" height="101" viewBox="0 0 101 101" fill="none" xmlns="http://www.w3.org/2000/svg">
<path d="M0 21.0417C0 9.42067 9.42068 0 21.0417 0H79.9583C91.5793 0 101 9.42068 101 21.0417V79.9583C101 91.5793 91.5793 101 79.9583 101H21.0417C9.42067 101 0 91.5793 0 79.9583V21.0417Z" fill="#0E242F"/>
<path d="M0 21.0417C0 9.42067 9.42068 0 21.0417 0H79.9583C91.5793 0 101 9.42068 101 21.0417V79.9583C101 91.5793 91.5793 101 79.9583 101H21.0417C9.42067 101 0 91.5793 0 79.9583V21.0417Z" fill="#0E242F"/>
<path d="M41.3597 55.7923C45.3189 55.9943 48.5711 56.6205 51.1163 57.6709C53.7019 58.7213 55.5805 60.0343 56.7521 61.6099C57.9237 63.1451 58.5095 64.7813 58.5095 66.5185C58.5095 70.4777 56.9339 73.4269 53.7827 75.3661C50.6315 77.3053 46.1471 78.2749 40.3295 78.2749C39.1579 78.2749 38.1681 78.2547 37.3601 78.2143C34.6129 78.1335 31.9263 78.0931 29.3003 78.0931C24.5735 78.0931 21.0587 78.1537 18.7559 78.2749V77.0629C20.0487 76.9821 20.9779 76.8205 21.5435 76.5781C22.1495 76.3357 22.5535 75.8712 22.7555 75.1844C22.9575 74.4976 23.0585 73.3865 23.0585 71.8513V41.7937C23.0585 40.2585 22.9373 39.1475 22.6949 38.4607C22.4929 37.7739 22.1091 37.3093 21.5435 37.0669C20.9779 36.8245 20.0487 36.6629 18.7559 36.5821V35.3701C21.0587 35.4913 24.5331 35.5519 29.1791 35.5519L36.1481 35.4913C36.9561 35.4509 37.8853 35.4307 38.9357 35.4307C44.2685 35.4307 48.3287 36.2993 51.1163 38.0365C53.9443 39.7333 55.3583 42.0361 55.3583 44.9449C55.3583 46.4397 54.8331 47.9547 53.7827 49.4899C52.7323 50.9847 51.1567 52.2977 49.0559 53.4289C46.9551 54.5601 44.3897 55.3075 41.3597 55.6711V55.7923ZM38.6327 36.5821C37.7035 36.5821 36.9965 36.7235 36.5117 37.0063C36.0673 37.2891 35.7643 37.7941 35.6027 38.5213C35.4411 39.2485 35.3603 40.3393 35.3603 41.7937V55.4893H36.9965C39.1781 55.4893 40.6931 54.6005 41.5415 52.8229C42.4303 51.0049 42.8747 48.6011 42.8747 45.6115C42.8747 42.5411 42.5313 40.2787 41.8445 38.8243C41.1981 37.3295 40.1275 36.5821 38.6327 36.5821ZM39.2993 76.8811C43.6221 76.8811 45.7835 73.3461 45.7835 66.2761C45.7835 63.0845 45.0159 60.6605 43.4807 59.0041C41.9455 57.3477 39.5215 56.5195 36.2087 56.5195H35.3603V71.8513C35.3603 73.3057 35.4613 74.3763 35.6633 75.0631C35.8653 75.7499 36.2289 76.2347 36.7541 76.5175C37.3197 76.7599 38.1681 76.8811 39.2993 76.8811Z" fill="#C4614A"/>
<path d="M69.4842 30.8857C71.585 30.8857 73.201 31.3301 74.3322 32.2189C75.5038 33.1077 76.0896 34.4005 76.0896 36.0973C76.0896 37.7941 75.5038 39.0869 74.3322 39.9757C73.201 40.8645 71.585 41.3089 69.4842 41.3089C67.343 41.3089 65.7068 40.8645 64.5756 39.9757C63.4444 39.0869 62.8788 37.7941 62.8788 36.0973C62.8788 34.4005 63.4444 33.1077 64.5756 32.2189C65.7068 31.3301 67.343 30.8857 69.4842 30.8857ZM75.3018 72.6391C75.3018 74.2955 75.5442 75.4469 76.029 76.0933C76.5542 76.6993 77.443 77.0023 78.6954 77.0023V78.2749C74.3322 78.1133 71.4638 78.0325 70.0902 78.0325C68.7166 78.0325 65.6866 78.1133 61.0002 78.2749V77.0023C62.2526 77.0023 63.1212 76.6993 63.606 76.0933C64.1312 75.4469 64.3938 74.2955 64.3938 72.6391V53.4289C64.3938 51.5705 64.1312 50.2171 63.606 49.3687C63.1212 48.5203 62.2526 48.0961 61.0002 48.0961V46.8235C62.293 46.9447 63.5454 47.0053 64.7574 47.0053C68.959 47.0053 72.4738 46.7225 75.3018 46.1569V72.6391Z" fill="#C4614A"/>
<path d="M43.8851 52.4256C47.8443 52.6276 51.0965 53.2538 53.6417 54.3042C56.2273 55.3546 58.1059 56.6676 59.2775 58.2432C60.4491 59.7784 61.0349 61.4146 61.0349 63.1518C61.0349 67.111 59.4593 70.0602 56.3081 71.9994C53.1569 73.9386 48.6725 74.9082 42.8549 74.9082C41.6833 74.9082 40.6935 74.888 39.8855 74.8476C37.1383 74.7668 34.4517 74.7264 31.8257 74.7264C27.0989 74.7264 23.5841 74.787 21.2812 74.9082V73.6962C22.5741 73.6154 23.5033 73.4538 24.0689 73.2114C24.6749 72.969 25.0788 72.5045 25.2809 71.8177C25.4829 71.1309 25.5839 70.0198 25.5839 68.4846V38.427C25.5839 36.8918 25.4627 35.7808 25.2203 35.094C25.0183 34.4072 24.6345 33.9426 24.0689 33.7002C23.5033 33.4578 22.5741 33.2962 21.2812 33.2154V32.0034C23.5841 32.1246 27.0585 32.1852 31.7045 32.1852L38.6735 32.1246C39.4815 32.0842 40.4107 32.064 41.4611 32.064C46.7939 32.064 50.8541 32.9326 53.6417 34.6698C56.4697 36.3666 57.8837 38.6694 57.8837 41.5782C57.8837 43.073 57.3585 44.588 56.3081 46.1232C55.2577 47.618 53.6821 48.931 51.5813 50.0622C49.4805 51.1934 46.9151 51.9408 43.8851 52.3044V52.4256ZM41.1581 33.2154C40.2288 33.2154 39.5219 33.3568 39.0371 33.6396C38.5927 33.9224 38.2897 34.4274 38.1281 35.1546C37.9665 35.8818 37.8857 36.9726 37.8857 38.427V52.1226H39.5219C41.7035 52.1226 43.2185 51.2338 44.0669 49.4562C44.9557 47.6382 45.4001 45.2344 45.4001 42.2448C45.4001 39.1744 45.0567 36.912 44.3699 35.4576C43.7235 33.9628 42.6529 33.2154 41.1581 33.2154ZM41.8247 73.5145C46.1475 73.5145 48.3089 69.9794 48.3089 62.9094C48.3089 59.7178 47.5413 57.2938 46.0061 55.6374C44.4709 53.981 42.0469 53.1528 38.7341 53.1528H37.8857V68.4846C37.8857 69.939 37.9867 71.0096 38.1887 71.6964C38.3906 72.3832 38.7543 72.8681 39.2795 73.1509C39.8451 73.3933 40.6935 73.5145 41.8247 73.5145Z" fill="white"/>
<path d="M72.0096 27.519C74.1104 27.519 75.7264 27.9634 76.8576 28.8522C78.0292 29.741 78.615 31.0338 78.615 32.7306C78.615 34.4274 78.0292 35.7202 76.8576 36.609C75.7264 37.4978 74.1104 37.9422 72.0096 37.9422C69.8684 37.9422 68.2322 37.4978 67.101 36.609C65.9698 35.7202 65.4042 34.4274 65.4042 32.7306C65.4042 31.0338 65.9698 29.741 67.101 28.8522C68.2322 27.9634 69.8684 27.519 72.0096 27.519ZM77.8272 69.2724C77.8272 70.9288 78.0696 72.0802 78.5544 72.7266C79.0796 73.3326 79.9684 73.6356 81.2208 73.6356V74.9082C76.8576 74.7466 73.9892 74.6658 72.6156 74.6658C71.242 74.6658 68.212 74.7466 63.5256 74.9082V73.6356C64.778 73.6356 65.6466 73.3326 66.1314 72.7266C66.6566 72.0802 66.9192 70.9288 66.9192 69.2724V50.0622C66.9192 48.2038 66.6566 46.8504 66.1314 46.002C65.6466 45.1536 64.778 44.7294 63.5256 44.7294V43.4568C64.8184 43.578 66.0708 43.6386 67.2828 43.6386C71.4844 43.6386 74.9992 43.3558 77.8272 42.7902V69.2724Z" fill="white"/>
</svg>
